# xmcd
#
# Track frame offsets: 
#        150
#        32587
#        54312
#        92415
#        117692
#        146805
#        174782
#        193745
#        210445
#        235650
#        279865
#
# Disc length: 3865 seconds
#
# Revision: 5
# Processed by: cddbd v1.5.2PL0 Copyright (c) Steve Scherf et al.
# Submitted via: ExactAudioCopy v0.95a4
#
DISCID=8e0f170b
DTITLE=Ronnie Earl - Healing Time
DYEAR=2000
DGENRE=Blues
TTITLE0=Churchin'
TTITLE1=Catfish Blues
TTITLE2=Idle Moments
TTITLE3=Thembi
TTITLE4=Blues for Shawn
TTITLE5=Glimpses of Serenity
TTITLE6=Lunch at R and M's
TTITLE7=Song for a Brother
TTITLE8=Bella Donna
TTITLE9=Blues on a Sunday
TTITLE10=Amazing Grace
EXTD=
EXTT0=
EXTT1=
EXTT2=
EXTT3=
EXTT4=
EXTT5=
EXTT6=
EXTT7=
EXTT8=
EXTT9=
EXTT10=
PLAYORDER=
